<?xml version="1.0" encoding="utf-8"?>
<!-- Generator: Adobe Illustrator 24.3.0, SVG Export Plug-In . SVG Version: 6.00 Build 0)  -->
<svg version="1.1" id="Component_69_5" xmlns="http://www.w3.org/2000/svg" xmlns:xlink="http://www.w3.org/1999/xlink" x="0px"
	 y="0px" viewBox="0 0 75 24" style="enable-background:new 0 0 75 24;" xml:space="preserve">
<style type="text/css">
	.st0{fill:#FBB116;}
	.st1{clip-path:url(#SVGID_2_);}
	.st2{fill:#333332;}
</style>
<path id="Rectangle_1" class="st0" d="M3,0h69c1.7,0,3,1.3,3,3v18c0,1.7-1.3,3-3,3H3c-1.7,0-3-1.3-3-3V3C0,1.3,1.3,0,3,0z"/>
<g id="Group_2" transform="translate(-2 -0.793)">
	<g id="Group_1039" transform="translate(9 8.093)">
		<g>
			<defs>
				<rect id="SVGID_1_" y="0" width="60.1" height="11.5"/>
			</defs>
			<clipPath id="SVGID_2_">
				<use xlink:href="#SVGID_1_"  style="overflow:visible;"/>
			</clipPath>
			<g id="Group_1038" class="st1">
				<g id="Group_1" transform="translate(0 -0.001)">
					<path id="Path_1" class="st2" d="M60.1,0.4v4c0,1.7-1.1,3.2-2.8,3.7v0.7h-2.1V8.1c-1.7-0.5-2.8-2-2.8-3.7v-4h2v4
						c0,1,0.8,1.8,1.8,1.8c1,0,1.8-0.8,1.8-1.8v-4H60.1z"/>
					<rect id="Rectangle_2" x="55.2" y="9.4" class="st2" width="2.1" height="2.1"/>
					<path id="Path_2" class="st2" d="M47.6,6.1c-1.1,0-2-0.9-2.1-2c0-1.1,0.9-2,2-2.1c0,0,0,0,0,0h0c1.1,0,2,0.9,2.1,2v0.1
						C49.6,5.2,48.7,6.1,47.6,6.1L47.6,6.1 M51.7,4c0-2.3-1.9-4.1-4.2-4c-2.3,0-4.1,1.9-4,4.2c0,2.3,1.9,4.1,4.2,4
						c0.7,0,1.4-0.2,2-0.5V8h2.1L51.7,4"/>
					<rect id="Rectangle_3" x="8.7" y="9.4" class="st2" width="2.1" height="2.1"/>
					<path id="Path_3" class="st2" d="M12.8,6.1c-1.1,0-2-0.9-2-2.1c0-1.1,0.9-2,2.1-2c1.1,0,2,0.9,2,2.1c0,0,0,0,0,0
						C14.8,5.2,13.9,6.1,12.8,6.1 M12.8,0c-2.3,0-4.1,1.8-4.1,4.1v4.7h2.1V7.6c2,1.1,4.5,0.4,5.6-1.5s0.4-4.5-1.5-5.6
						C14.2,0.2,13.5,0,12.8,0"/>
					<rect id="Rectangle_4" x="34.7" y="9.4" class="st2" width="2.1" height="2.1"/>
					<path id="Path_4" class="st2" d="M38.8,6.1c-1.1,0-2-0.9-2-2.1c0-1.1,0.9-2,2.1-2c1.1,0,2,0.9,2,2.1l0,0
						C40.8,5.2,39.9,6.1,38.8,6.1 M38.8,0c-2.3,0-4.1,1.8-4.1,4.1v4.7h2.1V7.6c2,1.1,4.5,0.4,5.6-1.5s0.4-4.5-1.5-5.6
						C40.2,0.2,39.5,0,38.8,0"/>
					<path id="Path_5" class="st2" d="M6.1,4.1c0,1.1-0.9,2-2,2s-2-0.9-2-2s0.9-2,2-2l0,0C5.2,2.1,6.1,3,6.1,4.1 M8.2,4.1
						C8.2,1.8,6.4,0,4.1,0S0,1.8,0,4.1s1.8,4.1,4.1,4.1S8.2,6.4,8.2,4.1L8.2,4.1"/>
					<path id="Path_6" class="st2" d="M30.1,0c-2.1,0-3.8,1.7-3.8,3.8V8h2.1V3.8c0-1,0.8-1.8,1.8-1.8s1.8,0.8,1.8,1.8V8h2V3.8
						C33.9,1.7,32.2,0,30.1,0C30.1,0,30.1,0,30.1,0"/>
					<path id="Path_7" class="st2" d="M19.7,3.1L19.7,3.1c0.6-1.1,1.9-1.4,2.9-0.9c0.4,0.2,0.6,0.5,0.8,0.8l0,0.1H19.7z M25.5,3.1
						L25.5,3.1c-0.5-2.2-2.8-3.5-5-3s-3.5,2.8-3,5c0.5,1.8,2.1,3.1,4,3.1c0.9,0,1.8-0.3,2.5-0.8l-1.4-1.4c-1,0.6-2.2,0.3-2.8-0.7
						l0-0.1h5.7C25.6,4.5,25.6,3.8,25.5,3.1"/>
				</g>
			</g>
		</g>
	</g>
</g>
</svg>
