<?xml version="1.0" encoding="UTF-8"?>
<svg width="256px" height="256px" viewBox="0 0 256 256" version="1.1" xmlns="http://www.w3.org/2000/svg" xmlns:xlink="http://www.w3.org/1999/xlink">
    <title>SVG Icon: icon.svg</title>
    <g id="SVG-Icon:-icon.svg" stroke="none" stroke-width="1" fill="none" fill-rule="evenodd">
        <rect id="Rectangle" fill="#FFB81C" x="0" y="0" width="256" height="256"></rect>
        <g id="Logo-/-Openpay-Stacked-/-Grey-Copy" transform="translate(35.523438, 77.500000)" fill="#333332" fill-rule="nonzero">
            <g id="Group-2">
                <path d="M184.721609,46.9585584 L184.721609,66.7449952 C184.710694,75.2037738 179.078251,82.624293 170.934023,84.9095929 L170.934023,88.313501 L160.773103,88.313501 L160.773103,84.9095929 C152.637386,82.6167318 147.015598,75.1976321 147.008966,66.7449952 L147.008966,46.9585584 L157.076092,46.9585584 L157.076092,66.7449952 C157.176738,71.5087111 161.06729,75.3179328 165.832069,75.3179328 C170.596848,75.3179328 174.4874,71.5087111 174.588046,66.7449952 L174.588046,46.9585584 L184.721609,46.9585584 Z" id="Path"></path>
                <rect id="Rectangle" x="160.722299" y="91.6822366" width="10.1570115" height="10.1570115"></rect>
                <path d="M123.04092,75.483386 C117.569655,75.483386 112.88,70.9266044 112.88,65.4436159 C112.853538,62.7425314 113.916198,60.1446474 115.828082,58.2364398 C117.739966,56.3282322 120.339891,55.2705753 123.04092,55.3022366 C128.492897,55.3128814 132.964801,59.6243974 133.174483,65.0723516 C133.174483,65.193501 133.174483,65.3146504 133.174483,65.4436159 C133.172515,68.123377 132.100149,70.6913213 130.195755,72.5766347 C128.291361,74.4619481 125.712748,75.508402 123.033103,75.483386 M143.14,65.0723516 C142.99772,55.9923159 136.799271,48.1294113 128.00339,45.8711431 C119.207509,43.612875 109.987892,47.5173209 105.489089,55.4057979 C100.990287,63.2942748 102.324073,73.2173318 108.746193,79.6378973 C115.168313,86.0584628 125.091693,87.3898455 132.97908,82.8891332 L132.97908,84.5617768 L143.14,84.5617768 L143.14,65.4318918 C143.14,65.3107424 143.14,65.1895929 143.14,65.0723516" id="Shape"></path>
                <rect id="Rectangle" x="59.585977" y="91.6861447" width="10.1570115" height="10.1570115"></rect>
                <path d="M79.6967816,75.4521217 C74.1240154,75.423993 69.6291852,70.8835954 69.657136,65.3108289 C69.6853485,59.7380624 74.2257081,55.2431939 79.7984748,55.271098 C85.3712415,55.299263 89.8661484,59.8395846 89.8382909,65.4123516 C89.8382909,70.8836159 85.1758621,75.4521217 79.6967816,75.4521217 M79.6967816,45.2155699 C68.5907064,45.2521148 59.601365,54.2554284 59.582069,65.361547 L59.582069,88.313501 L69.7429885,88.313501 L69.7429885,82.8422366 C77.091407,87.0367069 86.277721,86.1924486 92.7385257,80.7288565 C99.1993304,75.2652644 101.557656,66.3467759 98.6419772,58.4037504 C95.7262987,50.4607249 88.1580252,45.1860332 79.6967816,45.1999103" id="Shape"></path>
                <rect id="Rectangle" x="43.0002299" y="46.6029263" width="10.1570115" height="10.1570115"></rect>
                <path d="M63.1149425,30.3689033 C59.0333963,30.3498823 55.3652731,27.8738745 53.8212497,24.095598 C52.2772263,20.3173215 53.1614237,15.9809708 56.0614851,13.1088591 C58.9615465,10.2367474 63.3062565,9.39458495 67.0694034,10.975125 C70.8325503,12.5556651 73.2729197,16.2475941 73.252542,20.3291332 C73.252542,25.8003975 68.5901149,30.3689033 63.1149425,30.3689033 M63.1149425,0.132351553 C52.0088673,0.168896429 43.0195259,9.17221002 43.0002299,20.2783286 L43.0002299,43.2302826 L53.1611494,43.2302826 L53.1611494,37.7590182 C60.5091533,41.9532577 69.6949021,41.1093547 76.1556989,35.6464883 C82.6164958,30.1836218 84.9755343,21.2659377 82.0610453,13.3229811 C79.1465563,5.38002446 71.5796221,0.10445243 63.1188506,0.116698022" id="Shape"></path>
                <path d="M30.2717241,20.313501 C30.2717241,25.8863715 25.75402,30.4040757 20.1811494,30.4040757 C14.6082789,30.4040757 10.0905747,25.8863715 10.0905747,20.313501 C10.0905747,14.7406304 14.6082789,10.2229263 20.1811494,10.2229263 C25.7468944,10.2400914 30.254559,14.747756 30.2717241,20.313501 M40.3622989,20.313501 C40.3622989,9.16775992 31.3268905,0.132351553 20.1811494,0.132351553 C9.03540836,0.132351553 0,9.16775992 0,20.313501 C0,31.459242 9.03540836,40.4946504 20.1811494,40.4946504 C31.313527,40.462454 40.3301024,31.4458786 40.3622989,20.313501" id="Shape"></path>
                <path d="M148.43931,0.132351553 C138.021082,0.143121983 129.578127,8.58607769 129.567356,19.0043056 L129.567356,39.4551102 L139.728276,39.4551102 L139.728276,19.0043056 C139.728276,14.1631171 143.652835,10.2385584 148.494023,10.2385584 C153.335211,10.2385584 157.25977,14.1631171 157.25977,19.0043056 L157.25977,39.4551102 L167.334713,39.4551102 L167.334713,19.0043056 C167.321789,8.58544556 158.877713,0.143117962 148.458851,0.132351553" id="Path"></path>
                <path d="M96.985977,15.5495929 L97.1266667,15.299478 C98.9382672,11.9900276 102.410718,9.93218581 106.183563,9.93218581 C109.956408,9.93218581 113.428859,11.9900276 115.24046,15.299478 L115.377241,15.5495929 L96.985977,15.5495929 Z M125.768736,15.4245355 L125.768736,15.4245355 C123.130147,4.58636003 112.205072,-2.06071889 101.366897,0.577869087 C90.5287211,3.21645706 83.8816421,14.1415324 86.5202299,24.9797079 C88.278024,32.6793489 94.4284409,38.6073137 102.187586,40.0803975 C107.872291,41.2175949 113.771199,39.845789 118.370805,36.3169493 L111.301149,29.2472941 C106.562038,31.9790104 100.514154,30.5288225 97.5291954,25.9449952 L97.3572414,25.6831562 L125.604598,25.6831562 C126.081379,23.9401676 126.737931,19.1997079 125.753103,15.4245355" id="Shape"></path>
            </g>
        </g>
    </g>
</svg>